<?xml version="1.0" encoding="UTF-8"?>
<svg id="Layer_2" data-name="Layer 2" xmlns="http://www.w3.org/2000/svg" viewBox="0 0 930.69 1560.62">
  <defs>
    <style>
      .cls-1 {
        fill: #fefdfe;
      }

      .cls-1, .cls-2 {
        stroke-width: 0px;
      }

      .cls-2 {
        fill: #fff;
      }
    </style>
  </defs>
  <g id="Layer_1-2" data-name="Layer 1">
    <g>
      <path class="cls-1" d="m761.39,1225.63c-44.43,110.26-157.89,201.4-303.42,197.54-147.52-3.91-251.15-102.75-289.02-197.54h592.45Z"/>
      <path class="cls-1" d="m470,0h-9.31C206.26,0,0,206.26,0,460.7v639.22c0,254.44,206.26,460.7,460.69,460.7h9.31c254.43,0,460.69-206.26,460.69-460.7V460.7C930.69,206.26,724.43,0,470,0Zm417.58,1096.2c-.34,106.6-35.98,200.73-106.57,280.87-59.47,67.49-133.48,111.18-221.19,131.35-27.39,6.29-55.2,9.48-83.32,10.08-69.61,1.51-135.71-12.9-198.15-43.69-39.17-19.32-74.41-44.32-105.86-74.66-53.04-51.15-90.65-111.82-112.32-182.28-10.75-34.98-16.69-70.82-18.03-107.4-.29-8.11-.43-16.24-.43-24.37-.03-101.78-.02-203.57-.02-305.35s-.32-207.77.09-311.65c.44-110.26,37.41-206.83,111.83-288.27,62.83-68.77,140.27-113.12,231.95-130.03,123.63-22.79,237.16,2.42,337.29,79.36,82.73,63.57,134.28,147.63,155.98,249.83,6.29,29.58,8.97,59.54,8.96,89.77-.02,208.81.47,417.63-.21,626.44Z"/>
      <path class="cls-2" d="m495.1,372.82c24.63-71.54,49.06-142.55,73.55-213.7-1.59-.6-2.66-1.07-3.77-1.41-57.5-17.73-115.66-19.95-174.15-6.14-74.15,17.52-134.94,56.65-182.11,116.4-44.4,56.25-67.97,120.68-68.21,192.26-.7,206.57-.25,413.14-.25,619.72v4.43h189.67v-337.26h88.22v337.35h170.05V372.82h-93Zm-76.11,229.47h-88.22v-136.21c0-48.72,39.5-88.22,88.22-88.22v224.43Z"/>
      <path class="cls-1" d="m789.38,1084.54h-168.38V338.38h-73.69c17.56-56.1,34.94-111.61,52.51-167.74,7.83,3.98,15.52,7.5,22.84,11.68,84.19,48.12,137.7,119.17,159.36,213.92,5.09,22.28,7.36,44.9,7.36,67.74,0,204.98,0,409.97,0,614.95v5.61Z"/>
      <g>
        <path class="cls-1" d="m181.89,1174.02h50.57v14.29h-64.86v-71.34h64.5v14.29h-50.21v14.17h31.71v14.29h-31.71v14.29Z"/>
        <path class="cls-1" d="m259.96,1116.97h60.05v14.29h-54.53l-3,2.76v8.77l2.76,2.88,42.88-.24,11.89,10.93v22.1l-11.65,9.85h-60.17v-14.29h54.89l2.64-2.16v-9.25l-3.12-2.76-43.24.12-11.17-11.29v-21.02l11.77-10.69Z"/>
        <path class="cls-1" d="m399.29,1116.97l11.77,10.69v30.75l-11.65,9.85h-45.88v20.06h-14.29v-71.34h60.05Zm-2.52,17.06l-3-2.76h-40.24v22.7h40.72l2.52-2.16v-17.78Z"/>
        <path class="cls-1" d="m488.29,1116.97l11.89,10.69v50.81l-11.65,9.85h-48.64l-11.65-9.85v-50.81l11.89-10.69h48.16Zm-2.4,17.06l-3.12-2.76h-37.11l-3,2.76v37.83l2.52,2.16h38.08l2.64-2.16v-37.83Z"/>
        <path class="cls-1" d="m575.61,1168.26l17.78,20.06h-19.1l-17.66-20.06h-22.1v20.06h-14.29v-71.34h60.05l11.77,10.69v30.75l-11.65,9.85h-4.8Zm-.36-14.29l2.52-2.16v-17.78l-3-2.76h-40.24v22.7h40.72Z"/>
        <path class="cls-1" d="m677.34,1116.97v14.29h-28.71v57.05h-14.29v-57.05h-28.59v-14.29h71.58Z"/>
        <path class="cls-1" d="m702.56,1116.97h60.05v14.29h-54.53l-3,2.76v8.77l2.76,2.88,42.88-.24,11.89,10.93v22.1l-11.65,9.85h-60.17v-14.29h54.89l2.64-2.16v-9.25l-3.12-2.76-43.24.12-11.17-11.29v-21.02l11.77-10.69Z"/>
      </g>
    </g>
  </g>
</svg>